<svg version="1.1" id="Layer_1" xmlns="http://www.w3.org/2000/svg" xmlns:xlink="http://www.w3.org/1999/xlink" x="0px" y="0px"
	 width="100%" viewBox="0 0 512 512" enable-background="new 0 0 512 512" xml:space="preserve">
<path fill="#000000" opacity="1.000000" stroke="none" 
	d="
M298.262085,20.550537 
	C332.076202,27.640036 362.989746,41.046089 392.707153,57.423004 
	C425.653076,75.579124 456.083618,97.356522 484.512970,121.956100 
	C487.409271,124.462204 490.093140,127.218201 493.038361,129.662033 
	C495.651245,131.830154 495.360138,133.532486 493.007111,135.725357 
	C485.330414,142.879425 477.864441,150.260666 470.145233,157.367477 
	C467.344055,159.946457 466.234589,162.723328 466.247650,166.547058 
	C466.368805,202.036469 466.163818,237.527481 466.395905,273.015778 
	C466.486267,286.836426 463.267700,299.064453 454.427185,310.115356 
	C444.137909,322.977295 434.758087,336.570007 425.067688,349.906677 
	C419.400085,357.706879 418.517181,367.195435 416.380280,376.170624 
	C413.682281,387.502258 411.261810,398.829559 405.793793,409.310638 
	C400.440063,419.572693 392.589142,426.630890 381.720306,430.541351 
	C372.590668,433.826080 363.236481,436.143097 353.582794,436.841919 
	C335.911713,438.121155 318.323486,438.043396 301.261414,432.148560 
	C286.290192,426.976135 276.550568,416.166321 269.630066,402.534515 
	C262.013947,387.532501 256.738831,371.841492 257.675812,354.672028 
	C257.849915,351.481873 256.697906,349.908203 253.489639,349.052612 
	C246.887192,347.291962 240.459000,347.234924 233.815979,348.910065 
	C229.682281,349.952484 228.089920,351.885468 228.266098,356.207031 
	C229.077332,376.106995 222.050140,393.755066 211.880447,410.328369 
	C202.051773,426.345947 186.627838,433.614319 168.781891,436.065796 
	C149.858704,438.665253 131.034058,437.894043 112.322914,433.273926 
	C93.620163,428.655853 81.901299,417.152679 75.663208,399.284515 
	C70.935097,385.741425 69.070641,371.472565 64.812881,357.810425 
	C63.805187,354.576965 62.687019,351.550110 60.692993,348.826935 
	C51.147610,335.791107 41.845108,322.569855 32.020203,309.748718 
	C24.198761,299.541992 20.413563,288.440948 20.559570,275.503632 
	C20.896122,245.682632 20.874388,215.853302 20.594114,186.031158 
	C20.412188,166.673737 29.161846,152.508743 44.941147,142.434830 
	C49.355331,139.616684 50.710018,136.644379 50.806904,131.637207 
	C51.035564,119.819855 52.932991,108.187469 56.305138,96.793427 
	C59.384460,86.388786 66.319977,78.862373 74.166740,72.020027 
	C96.794075,52.289104 123.350586,39.832520 151.633499,30.698961 
	C176.261124,22.745819 201.542816,18.377794 227.360977,16.522524 
	C251.071136,14.818728 274.564331,15.320944 298.262085,20.550537 
M352.093964,187.395386 
	C343.247803,173.363266 330.357574,164.731537 314.922028,159.440353 
	C310.879669,158.054688 309.162872,158.953568 309.262238,163.567520 
	C309.484589,173.891785 309.363220,184.224579 309.282684,194.553146 
	C309.268066,196.429291 309.982086,198.508057 308.427063,200.257904 
	C305.930298,199.773056 305.005707,197.623398 303.687134,196.033783 
	C298.354675,189.605240 292.758575,183.474609 285.933899,178.557404 
	C262.484406,161.662079 236.378693,150.719208 208.332962,144.348999 
	C191.783951,140.590134 175.130234,137.640518 157.964554,140.259842 
	C134.618118,143.822296 120.961388,165.290268 122.163033,182.404510 
	C122.780045,191.192139 121.578171,200.133636 122.506828,208.866455 
	C123.623253,219.365005 119.063637,226.219467 111.332703,232.259399 
	C103.728271,238.200516 96.401863,244.521896 89.216759,250.969818 
	C77.449478,261.529785 69.650169,273.847321 71.187256,290.706268 
	C71.863380,298.122040 71.310104,305.702911 70.716850,313.161255 
	C70.370071,317.520874 72.207726,317.995850 75.613380,317.481781 
	C86.649887,315.815857 97.796165,315.387268 108.913849,314.742279 
	C128.545761,313.603333 148.194839,314.079163 167.828552,314.763947 
	C182.379074,315.271423 197.401505,316.218903 209.709488,324.198456 
	C218.934937,330.179443 228.003616,330.934601 237.989822,330.640259 
	C242.650558,330.502899 247.332382,330.388641 251.980484,330.667084 
	C260.432922,331.173431 267.808594,329.727966 275.376068,324.840698 
	C287.974976,316.704041 302.944672,315.385864 317.629242,314.860809 
	C348.577789,313.754272 379.526855,313.626221 410.336670,317.593109 
	C414.014191,318.066589 415.924469,317.209412 415.715240,312.896881 
	C415.166809,301.590454 415.013550,290.265411 414.588928,278.952057 
	C414.475647,275.934021 413.347748,273.120819 412.062836,270.386719 
	C408.519501,262.846619 402.976410,256.871033 397.007080,251.268021 
	C389.588684,244.304855 381.518616,238.108948 373.427887,231.965530 
	C366.915253,227.020370 362.612152,221.128738 361.620117,212.638977 
	C360.588257,203.808502 357.140015,195.621582 352.093964,187.395386 
M289.017822,412.482086 
	C293.174316,416.723633 298.062073,419.847687 303.694214,421.688110 
	C326.953888,429.288696 350.411102,429.821594 373.836487,422.777802 
	C384.898621,419.451508 392.998535,412.288483 397.437622,401.354126 
	C403.967041,385.270966 407.376495,368.613800 406.642487,351.210144 
	C406.161652,339.808563 399.282867,331.362762 388.099335,328.774475 
	C379.177551,326.709625 370.056763,325.708435 360.923279,325.396210 
	C346.279022,324.895569 331.607910,324.768219 317.016205,326.391907 
	C307.618225,327.437683 298.103363,328.036926 289.088806,331.308685 
	C274.742584,336.515411 268.615356,346.435242 270.473358,361.490692 
	C271.001923,365.773712 271.454895,370.091980 272.391846,374.293854 
	C275.412750,387.841461 279.347534,401.039917 289.017822,412.482086 
M93.373825,410.077271 
	C98.568108,416.481415 105.184967,420.701813 113.043480,423.131317 
	C133.495651,429.454224 154.153458,428.649078 174.697449,424.231049 
	C190.614853,420.807922 201.451828,411.256195 207.251053,395.566284 
	C211.385849,384.379425 214.305634,373.050446 215.549179,361.272003 
	C217.200409,345.631958 210.799637,335.961548 195.750061,330.925507 
	C193.708344,330.242279 191.606934,329.668274 189.489014,329.292419 
	C161.100250,324.254120 132.592926,323.607086 104.038002,327.524078 
	C88.088989,329.711884 80.092209,337.167023 79.478210,350.964142 
	C78.558441,371.632446 82.663284,391.313324 93.373825,410.077271 
z"/>
</svg>